PathFileType	4	(X/Y/Z)	C:\Users\°ÂÌØÂü\Desktop\20210112\bx_y_5_902-Unnamed.trc
DataRate	CameraRate	NumFrames	NumMarkers	Units	OrigDataRate	OrigDataStartFrame	OrigNumFrames
50.00	50.00	       10	0	mm	50.00	197	       525
Frame#	Time	
		

197	3.920	-146.33417	111.47686	1158.92395				-888.30890	290.00497	721.70477	-797.15778	-10.97442	796.08057	-862.00482	283.17169	855.27710	-729.44971	70.79607	221.53119	-876.61365	253.81311	612.07025	-858.67389	246.03902	555.51709	-793.45978	205.46944	531.30945	-876.15948	258.33804	476.76984	-518.16559	-72.85094	142.63484	-870.39606	-73.75262	842.31287	-604.53851	19.55467	166.34224	-677.82025	176.20015	163.49939	-777.49182	227.58461	199.22243	-596.45135	223.43581	173.14639	-882.67493	296.27420	144.64992	-562.66681	257.91763	164.59381	-665.91431	299.97620	158.25975	-627.52600	307.63297	160.96393	-528.15753	303.80014	146.04736	-723.39026	158.60890	223.07814	-970.18066	94.44650	1084.92749	-774.30951	-10.97127	199.49966	-797.07758	51.62472	171.12785	-800.87256	178.49980	179.56934	-867.20496	-38.11837	463.81641	-665.10223	-68.09503	160.41040	-876.03497	-78.80706	141.24240	-867.73169	-64.48952	686.09344	-799.94751	213.37891	803.33167				-847.92474	-28.39544	550.89703	-562.36151	-37.40419	163.32030				-623.53259	-79.27676	158.29008	-783.23535	13.51514	522.54962																			-676.97968	52.74142	163.10858	
198	3.940	-148.67967	111.64414	1173.47424	-373.03033	260.40341	1027.85156	-887.94098	289.21680	721.53302	-796.07019	-10.75688	796.44324	-861.78320	283.13135	855.30853	-729.37769	70.94048	221.68092	-876.25513	253.69783	612.33453	-858.75885	246.07774	555.44177	-793.48505	205.55510	531.21838	-876.11450	258.21347	476.88596	-517.99005	-72.97462	142.95448	-869.77112	-73.08212	842.31299	-604.53870	19.46088	166.43593	-677.60449	176.57251	162.86082	-777.61237	227.52032	199.22414	-596.48071	223.59381	173.18680	-882.48743	296.05096	144.59955	-562.88452	258.13474	164.58565	-665.91431	299.97620	158.25975	-627.52600	307.63297	160.96393	-528.12665	303.87729	146.05612	-723.33124	158.62764	223.26221	-971.21259	94.42047	1084.08398	-774.34894	-10.92335	199.48409	-797.08997	51.81614	171.33289	-800.90643	178.19864	179.80118	-867.10828	-38.06046	463.72141	-664.71930	-69.05094	161.67679	-875.97748	-78.88188	141.21204	-866.74927	-64.18921	686.83063	-799.61688	213.75133	803.58710				-847.39093	-28.15677	550.87006	-562.32269	-37.66197	163.60077				-623.58380	-79.17046	158.26950	-782.83435	13.46917	522.86737																			-676.96442	52.99699	163.38084	
199	3.960	-151.68562	111.85830	1189.02576				-887.39856	289.60706	722.05640	-795.24847	-10.61220	796.97614	-861.35016	282.96497	855.57404	-729.17682	70.89328	221.59674	-875.83679	253.53400	612.48846	-858.18109	246.06956	555.68842	-793.22101	205.75685	531.24866	-876.01691	258.23282	476.96747	-517.91119	-72.83681	142.86755	-869.17145	-72.13547	842.22314	-604.26172	19.56199	166.53693	-677.57532	176.29671	163.32457	-777.52533	227.51178	199.33113	-596.48071	223.59381	173.18680	-882.39532	295.91360	144.52832	-562.85773	258.19974	164.50294	-665.86145	300.18405	158.51439	-627.18585	307.23938	160.16637	-528.12671	303.77979	145.95680	-723.27307	158.79289	223.05437	-972.61560	94.72916	1083.50757	-774.25775	-10.97855	199.39613	-797.20764	51.57230	171.35341	-800.67303	177.99893	179.47401	-866.72974	-38.07174	463.74023	-664.68842	-69.16710	161.69771	-876.20093	-79.02077	141.43263	-865.68060	-64.34012	687.20575	-798.08533	214.29329	804.60938	-802.07690	-9.17361	975.61084	-847.39093	-28.15677	550.87006	-562.28186	-37.52772	163.46394				-623.58380	-79.17046	158.26950	-782.82727	13.38130	522.69946																			-676.94714	52.63887	163.19786	
200	3.980	-154.92380	111.86574	1204.88062	-375.44827	261.42938	1051.17786	-887.15662	289.48242	722.57892	-794.40283	-9.93084	797.02625	-860.24133	283.14063	856.14954	-729.53644	71.05663	221.30333	-875.36353	253.62671	612.72955	-858.01770	246.06244	555.63489	-793.22101	205.75685	531.24866	-876.01062	258.34457	477.08408	-517.99005	-72.97462	142.95448	-867.86359	-72.42330	842.81378	-604.62061	19.24274	166.53067	-677.57532	176.29671	163.32457	-777.73462	227.65714	199.39948	-596.72510	223.60278	173.17308	-882.58643	296.20279	144.70938	-562.88452	258.13474	164.58565	-665.86353	300.37173	158.36530	-627.46423	307.84894	161.00958	-528.13196	303.91632	146.12721	-723.12036	158.58012	223.39792	-973.62164	94.83483	1082.41528	-774.37427	-10.93828	199.31366	-797.23871	51.57276	171.27821	-800.92145	177.99666	179.85036	-866.35260	-38.08313	463.67520	-664.71930	-69.05094	161.67679	-875.99298	-78.87768	141.19183	-864.87854	-63.70568	687.14117	-798.78680	213.30046	804.47339	-801.57318	-8.97639	977.38092	-847.30280	-28.13917	551.02081	-562.39014	-37.64120	163.29141				-623.67053	-79.26079	158.25989	-782.73956	13.31492	522.86371																			-676.93188	52.89444	163.47011	
201	4.000	-157.98584	111.89439	1222.18372	-376.00327	262.63480	1063.61902	-886.02753	289.27390	723.07440	-793.19946	-9.73286	797.21686	-859.11041	282.93820	855.96570	-729.36993	71.06693	221.16275	-875.13409	253.53348	612.83630	-857.95892	246.32584	555.70758	-792.96301	205.93279	531.37463	-875.56757	258.39548	477.15097	-517.91119	-72.83681	142.86755	-866.11365	-72.23126	842.83698	-604.48230	19.44130	166.85515	-677.71246	176.38640	163.18005	-777.72577	227.43613	199.19598	-596.74640	223.68654	173.06844	-882.48743	296.05096	144.59955	-563.03076	258.32529	164.65622	-665.97949	300.39764	158.20796	-627.56244	308.16177	161.24196	-528.24384	303.97391	146.49754	-723.25958	158.28058	223.41026	-974.52600	95.42956	1081.54529	-774.49738	-11.17786	199.59631	-797.23871	51.57276	171.27821	-800.90900	178.32758	179.60619	-866.29932	-38.21124	463.77386	-665.00916	-68.03478	160.14822	-875.97589	-78.81084	141.28232	-864.05469	-63.88056	687.89246	-797.51642	213.58865	804.86401	-801.40625	-8.43831	978.43329	-847.03113	-28.27506	550.94971	-562.53796	-37.48824	163.20807				-623.84961	-79.44189	158.55078	-782.53503	13.16204	522.89355																			-677.28064	52.50241	163.41789	
202	4.020	-162.09398	112.57263	1239.66882	-377.96811	263.50989	1076.96289	-884.73419	289.41473	723.56415	-792.33307	-9.74394	797.77338	-857.93695	283.19193	856.80231	-729.39099	71.11846	221.46352	-874.39240	253.89842	613.04688	-857.26459	246.71939	555.79639	-792.78333	206.32747	531.19269	-875.30371	258.24817	477.33136	-517.99005	-72.97462	142.95448	-865.09338	-72.30952	843.45636	-604.41455	19.53593	167.00145	-677.57532	176.29671	163.32457	-778.02026	228.04935	199.57642	-596.95117	223.71100	173.24896	-882.51721	295.96179	144.49458	-563.05872	258.14978	164.51674	-666.03235	300.18979	157.95328	-627.27045	307.65009	160.10924	-528.06500	303.88736	146.33670	-722.82635	158.85703	223.05025	-975.05383	95.77204	1081.05688	-774.45367	-11.21668	199.36949	-797.20764	51.57230	171.35341	-800.95129	178.21603	179.74512	-865.55981	-38.18689	463.91141	-665.04614	-68.27677	160.47026	-875.94904	-79.04231	141.03226	-861.56989	-64.35152	688.90234	-796.36371	213.33060	804.96783	-800.42688	-8.44729	980.69788	-845.88416	-28.77806	551.76019	-562.35187	-37.81528	163.47795	-373.33411	-51.54968	1061.94031	-623.82654	-79.44673	158.41357	-781.97156	12.72297	523.06207																			-677.41400	52.64703	163.70987	
203	4.040	-166.23456	113.00470	1257.69263				-883.53455	289.14435	723.51483	-790.48456	-9.83947	798.66089	-856.92932	282.56674	857.03131	-729.21210	71.01832	221.38908	-873.41309	253.93604	613.31720	-856.65753	246.96709	556.02753	-791.74963	206.70326	531.59808	-874.74371	258.52075	477.74063	-517.91119	-72.83681	142.86755	-863.54877	-72.14402	843.89929	-604.72382	19.38661	166.87206	-677.71246	176.38640	163.18005	-778.09369	227.65195	199.51001	-596.99622	224.00084	173.15448	-882.48743	296.05096	144.59955	-563.22302	258.34613	164.64484	-666.03235	300.18979	157.95328	-627.33673	307.70459	160.18982	-528.12329	304.25436	146.09761	-722.92169	158.90961	222.95007	-976.07330	96.19415	1080.53137	-774.48340	-11.21871	199.39430	-797.21869	51.40908	171.24429	-801.00482	178.29137	179.72821	-864.68542	-38.30492	464.49179	-664.77991	-68.64610	160.73814	-875.93359	-78.96604	141.13327	-858.94122	-65.60334	690.50549	-794.25256	214.15762	806.20795	-799.40326	-8.91417	983.38074	-844.87939	-28.15177	551.64594	-562.35187	-37.81528	163.47795	-376.29211	-51.64580	1074.49976	-624.00482	-79.15451	157.99400	-780.56061	13.39245	522.96362																			-677.41400	52.64703	163.70987	
204	4.060	-171.20322	113.05418	1276.51453				-881.94312	288.85733	724.05988	-789.49084	-8.81602	798.69183	-855.23364	282.61121	857.20526	-729.30353	70.67908	221.12297	-872.20728	254.11494	614.00580	-855.98535	247.30936	556.19531	-790.99371	206.63751	531.44623	-874.51953	258.51324	477.75912	-517.91119	-72.83681	142.86755	-861.70697	-71.61219	844.39850	-604.78400	19.47993	166.91211	-677.68311	176.11047	163.64388	-778.07855	227.88771	199.54010	-596.95648	223.93033	173.26494	-882.53717	296.10168	144.59633	-562.96436	258.75284	164.53874	-665.90564	300.28131	158.02654	-627.41223	307.86496	160.21323	-528.02954	303.96597	146.07362	-722.74677	158.81204	223.11879	-976.68506	96.86917	1079.35828	-774.44116	-11.13378	199.66965	-797.22003	51.50731	171.41798	-800.91534	178.06242	179.57248	-864.14069	-38.46130	464.98013	-664.83307	-68.65810	160.80363	-875.64880	-79.04969	141.18465	-857.27264	-65.03062	691.02612	-792.98004	213.78148	806.09430	-798.54871	-7.93784	984.76428	-843.70380	-28.40133	552.47308	-562.20795	-37.59921	163.33382	-378.46591	-52.61808	1088.15417	-623.76654	-79.87811	158.60153	-779.79358	13.42229	523.17456																			-677.28064	52.50241	163.41789	
205	4.080	-177.33189	113.49695	1296.17419	-384.02588	266.08633	1118.90320	-880.66187	288.59689	724.43433	-787.09503	-8.76200	799.12866	-853.23419	282.93979	858.06934	-729.21210	71.01832	221.38908	-871.58881	254.16153	614.11670	-855.36505	247.14250	556.73822	-790.75366	206.84718	531.15363	-873.95953	258.71854	478.11447	-517.99005	-72.97462	142.95448	-859.67340	-71.26364	844.92926	-604.78186	19.38852	166.82043	-677.71246	176.38640	163.18005	-777.90741	227.93437	199.41931	-597.01331	223.99348	173.16391	-882.40680	296.07779	144.65472	-563.27008	258.36600	164.66438	-666.00598	300.48679	158.11128	-627.45691	307.66129	160.02718	-528.18732	303.84201	146.24004	-722.82953	158.84955	222.86508	-977.21216	96.97536	1078.94775	-774.38159	-10.95202	199.81686	-797.34259	51.44952	171.41385	-801.15045	178.11903	179.64859	-862.99396	-38.53614	465.66110	-664.65564	-68.70854	160.76756	-875.99298	-78.87768	141.19183	-855.31909	-64.43374	691.29462	-791.01788	214.03200	806.63489	-797.23523	-8.23349	987.31689	-842.16785	-28.16071	552.75214	-562.24878	-37.73347	163.47066	-381.53998	-52.96664	1101.41064	-623.68909	-79.84412	158.82895	-778.40808	13.08919	523.29865																			-677.28064	52.50241	163.41789	
206	4.100	-183.78566	113.61654	1315.99109	-386.96991	267.02740	1132.60864	-879.28906	288.62805	724.66254	-785.12311	-8.52738	800.29132	-852.07123	282.96112	857.98108	-729.21210	71.01832	221.38908	-870.45105	254.42836	614.08038	-854.37146	247.42422	556.92999	-789.46033	207.16812	531.71735	-873.07245	258.93030	478.19681	-517.99005	-72.97462	142.95448	-857.82599	-70.77467	845.64893	-604.70782	19.27186	166.63548	-677.71246	176.38640	163.18005	-777.86029	227.95717	199.54178	-597.00659	224.01620	173.00902	-882.46344	296.07651	144.61064	-563.18835	258.37289	164.51471	-666.00598	300.48679	158.11128	-627.31805	307.89551	159.97839	-528.01141	303.87302	146.29405	-722.74261	158.90753	222.81789	-977.00500	96.91798	1077.50696	-774.47650	-10.94346	199.90938	-797.34259	51.44952	171.41385	-800.91962	177.85553	179.48544	-862.02069	-38.61562	465.74216	-664.84369	-68.77177	160.72462	-876.21582	-78.89662	141.61688	-853.33594	-64.00003	691.69891	-789.39301	214.82884	807.78345	-795.61572	-8.43111	989.72510	-841.14465	-28.67044	553.62329	-562.31104	-37.68103	163.34111	-384.74234	-53.42609	1115.17322	-623.81415	-79.28622	158.38348	-777.09192	13.38493	523.52045	-817.59552	146.37910	561.76221	-841.40686	-34.23236	602.16583													-677.28064	52.50241	163.41789	
